# xmcd
#
# Track frame offsets:
#  150
#  14865
#  36090
#  64872
#  87175
#  113092
#  133820
#  143252
#  168825
#  196107
#  216965
#  242957
#
# Disc length: 3558 seconds
#
# Revision: 0
# Processed by: cddbd v1.5.1PL2 Copyright (c) Steve Scherf et al.
# Submitted via: Collectorz.com_Music_Collector 6.10
#
DISCID=a60de40c
DTITLE=Herb Pomeroy and Donna Byrne - Walking on Air
DYEAR=1997
DGENRE=Jazz
TTITLE0=Doxy/It's A Wonderful World
TTITLE1=Lullaby in Rhythm
TTITLE2=ill Wind
TTITLE3=Taps Miller
TTITLE4=Take the 'A' Train
TTITLE5=Just One Of Those Things
TTITLE6=No More
TTITLE7=Summertime
TTITLE8=Do Nothin' Till You Hear From Me
TTITLE9=Your Red Wagon
TTITLE10=I Have Dreamed
TTITLE11=The Intimacy Of The Blues
EXTD=
EXTT0=
EXTT1=
EXTT2=
EXTT3=
EXTT4=
EXTT5=
EXTT6=
EXTT7=
EXTT8=
EXTT9=
EXTT10=
EXTT11=
PLAYORDER=
